<svg width="117" height="117" viewBox="0 0 117 117" fill="none" xmlns="http://www.w3.org/2000/svg">
<g clip-path="url(#clip0_302_10)">
<mask id="mask0_302_10" style="mask-type:luminance" maskUnits="userSpaceOnUse" x="0" y="0" width="117" height="117">
<path d="M117 0H0V117H117V0Z" fill="white"/>
</mask>
<g mask="url(#mask0_302_10)">
<path d="M93.4394 0H23.5606C10.5485 0 0 10.5485 0 23.5606V93.4394C0 106.452 10.5485 117 23.5606 117H93.4394C106.452 117 117 106.452 117 93.4394V23.5606C117 10.5485 106.452 0 93.4394 0Z" fill="#EEE5A1"/>
<g clip-path="url(#clip1_302_10)">
<path d="M91.6798 38.747C91.6807 38.6883 91.6662 38.6303 91.6377 38.579C91.6092 38.5276 91.5676 38.4847 91.5173 38.4545L58.1625 19.0455C58.1114 19.0152 58.053 18.9992 57.9935 18.9992C57.9341 18.9992 57.8757 19.0152 57.8245 19.0455L24.4795 38.6722C24.2585 38.8022 24.2585 39.1272 24.4795 39.2572L57.831 58.6663C57.8828 58.6956 57.9414 58.7105 58.0009 58.7093C58.0604 58.7082 58.1184 58.6911 58.169 58.6598L91.5173 39.0395C91.5676 39.0093 91.6092 38.9664 91.6377 38.915C91.6662 38.8637 91.6807 38.8057 91.6798 38.747ZM91.6798 48.0518C91.6801 47.993 91.6649 47.9352 91.6358 47.8842C91.6067 47.8332 91.5646 47.7907 91.5139 47.7611C91.4632 47.7314 91.4056 47.7157 91.3468 47.7153C91.2881 47.715 91.2303 47.7302 91.1793 47.7593L62.0365 64.6138C61.9848 64.6432 61.9417 64.6858 61.9114 64.7371C61.8812 64.7884 61.865 64.8467 61.8643 64.9063L61.8643 75.0365C61.8643 75.2965 62.1503 75.459 62.3745 75.329L91.514 58.4745C91.5648 58.4444 91.6068 58.4016 91.6358 58.3503C91.6649 58.299 91.6801 58.241 91.6798 58.182L91.6798 48.0518ZM91.6798 67.1975C91.6799 67.1389 91.6645 67.0814 91.6352 67.0307C91.6058 66.98 91.5636 66.9379 91.5127 66.9089C91.4619 66.8798 91.4042 66.8647 91.3456 66.8652C91.2871 66.8657 91.2297 66.8816 91.1793 66.9115L58 86.132L24.8208 66.9115C24.7704 66.8816 24.713 66.8657 24.6544 66.8652C24.5958 66.8647 24.5382 66.8798 24.4873 66.9089C24.4364 66.9379 24.3942 66.9799 24.3648 67.0307C24.3355 67.0814 24.3201 67.1389 24.3203 67.1975L24.3203 77.3472C24.3195 77.4051 24.3341 77.4621 24.3627 77.5123C24.3912 77.5626 24.4327 77.6043 24.4828 77.6332L57.8343 96.9545C57.8844 96.9842 57.9417 96.9999 58 96.9999C58.0583 96.9999 58.1156 96.9842 58.1658 96.9545L91.514 77.6333C91.5647 77.6048 91.6068 77.5632 91.636 77.5129C91.6651 77.4626 91.6802 77.4054 91.6798 77.3472L91.6798 67.1975ZM53.6548 64.63C53.6555 64.571 53.6402 64.5129 53.6104 64.4619C53.5806 64.411 53.5375 64.3691 53.4858 64.3408L24.8208 47.7625C24.5965 47.6325 24.3203 47.795 24.3203 48.055L24.3203 58.1853C24.3196 58.2439 24.3343 58.3017 24.3628 58.353C24.3913 58.4043 24.4326 58.4473 24.4828 58.4778L53.1478 75.0527C53.1989 75.0826 53.257 75.0985 53.3162 75.0986C53.3755 75.0986 53.4337 75.083 53.4849 75.0533C53.5361 75.0235 53.5785 74.9808 53.6078 74.9293C53.6371 74.8778 53.6521 74.8195 53.6515 74.7602L53.6515 64.6267L53.6548 64.63Z" fill="#3A350B"/>
</g>
</g>
</g>
<defs>
<clipPath id="clip0_302_10">
<rect width="117" height="117" fill="white"/>
</clipPath>
<clipPath id="clip1_302_10">
<rect width="78" height="78" fill="white" transform="translate(97 19) rotate(90)"/>
</clipPath>
</defs>
</svg>
